<!-- Source: https://www.nvidia.com/content/dam/en-zz/Solutions/about-nvidia/logo-and-brand/nvidia-logo-horz.svg; eye mark path and color unchanged, wordmark removed for compact badge display. -->
<svg id="Layer_1" xmlns="http://www.w3.org/2000/svg" viewBox="165 483 644 473"><defs><style>.cls-1{fill:#76b900;}</style></defs><path id="Eye_Mark" class="cls-1" d="M436.93785,640.78361v-35.49175c3.4459-.24553,6.92613-.42918,10.4726-.54024,97.07249-3.05104,160.75618,83.40761,160.75618,83.40761,0,0-68.78225,95.53503-142.53101,95.53503-10.62215,0-20.12751-1.71234-28.69777-4.58826v-107.62396c37.79122,4.56486,45.3879,21.25692,68.11388,59.12728l50.52954-42.60379s-36.88389-48.37696-99.0625-48.37696c-6.76609,0-13.23133.47815-19.58092,1.15504M436.93785,523.54106v53.0144c3.48438-.27548,6.97313-.49739,10.4726-.62333,134.99401-4.54781,222.93894,110.70911,222.93894,110.70911,0,0-101.01819,122.83652-206.25515,122.83652-9.64223,0-18.67162-.89028-27.15639-2.39142v32.76954c7.25714.92242,14.77052,1.46463,22.61492,1.46463,97.93719,0,168.75864-50.01037,237.34237-109.20595,11.3631,9.10406,57.91698,31.25152,67.49078,40.95975-65.2126,54.58595-217.17638,98.58388-303.32785,98.58388-8.30134,0-16.28653-.50177-24.12021-1.25321v46.05397h372.23407v-392.91789h-372.23407ZM436.93785,779.10599v27.98036c-90.57969-16.14985-115.72071-110.3077-115.72071-110.3077,0,0,43.48994-48.18696,115.72071-55.99504v30.69842c-.05553,0-.09183-.01487-.14102-.01487-37.90229-4.55218-67.51832,30.86283-67.51832,30.86283,0,0,16.59175,59.61825,67.65934,76.776M276.05771,692.6985s53.68509-79.21639,160.88014-87.40665v-28.7364c-118.72891,9.52895-221.54711,110.08578-221.54711,110.08578,0,0,58.23072,168.35047,221.54711,183.76373v-30.54909c-119.84569-15.0781-160.88014-147.15739-160.88014-147.15739Z"/></svg>
